<?xml version="1.0" encoding="utf-8"?>
<!-- Generator: Adobe Illustrator 23.0.6, SVG Export Plug-In . SVG Version: 6.00 Build 0)  -->
<svg version="1.1" id="Layer_1" xmlns="http://www.w3.org/2000/svg" xmlns:xlink="http://www.w3.org/1999/xlink" x="0px" y="0px"
	 viewBox="0 0 850.39 198.43" style="enable-background:new 0 0 850.39 198.43;" xml:space="preserve">
<style type="text/css">
	.st0{fill:#272626;}
</style>
<path class="st0" d="M126.48,4.98c-13.78,5.77-28.92,22.06-33.7,42.51C86.72,73.4,111.93,84.36,114,80.76
	c2.43-4.22-4.52-5.65-5.95-19.09c-1.85-17.36,6.22-36.76,16.38-45.28c1.89-1.58,1.8,0.62,1.8,4.69c0,7.28-0.4,72.64-0.4,86.28
	c0,18.46-0.76,24.29-2.13,30.05c-1.39,5.84-3.62,9.78-1.93,11.3c1.89,1.7,9.95-2.34,14.62-8.86c5.6-7.81,7.56-17.19,7.91-27.38
	c0.42-12.28,0.41-31.77,0.42-42.89c0.02-10.2,0.17-40.05-0.18-58C144.45,7.18,132.25,2.57,126.48,4.98 M615.67,91.37
	c-0.44,9.6-2.57,17.1-5.2,22.39c-5.1,10.24-15.69,13.42-20.19-1.3c-2.45-8.03-2.56-21.43-0.8-32.63
	c1.79-11.41,6.8-20.03,15.09-19.25C612.74,61.34,616.57,71.88,615.67,91.37L615.67,91.37z M477.79,150.9
	c-0.11,15.94-2.62,29.92-8,33.98c-7.63,5.76-17.89,1.44-15.77-10.2c1.88-10.3,10.77-20.81,23.79-33.66
	C477.82,141.03,477.84,143.96,477.79,150.9L477.79,150.9z M475.71,91.27c-0.47,8.74-2.73,17.52-5.2,22.48
	c-5.1,10.24-15.77,13.44-20.19-1.3c-3.02-10.07-2.3-23.11-0.8-31.33c1.94-10.66,6.64-20.55,15.09-20.55
	C472.82,60.58,476.87,69.59,475.71,91.27L475.71,91.27z M395.84,91.14c-0.5,9.26-2.31,16.99-5.2,22.61
	c-5.24,10.17-15.62,13.4-20.19-1.3c-3.3-10.6-2.18-25.05-0.8-32.86c2.04-11.58,7.13-19.8,15.09-19.02
	C392.91,61.38,396.88,71.88,395.84,91.14L395.84,91.14z M761.86,101.95c-2,0-2.91,2.06-3.66,5.53c-2.62,12.06-5.37,14.78-8.91,14.78
	c-3.96,0-7.52-5.97-8.44-17.92c-0.72-9.4-0.6-26.7,0.32-43.9c0.19-3.54-0.79-7.03-10.27-10.48c-4.08-1.48-10.01-3.66-12.97,3.47
	c-8.34,20.14-11.61,36.13-12.38,42.63c-0.04,0.34-0.45,0.4-0.52-0.38c-0.49-5.2-1.58-14.66-1.72-34.52
	c-0.03-3.88-0.85-7.17-5.13-9.88c-2.78-1.75-11.2-4.85-14.24-1.16c-2.63,3.02-5.67,11.13-8.84,20.75
	c-2.57,7.82-4.36,13.11-4.36,13.11s0.03-21.1,0.06-29.1c0.01-3.02-2.06-4.03-2.68-4.21c-2.81-0.82-8.35-2.18-10.7-2.18
	c-2.9,0-3.61,1.62-3.61,3.98c0,0.31-0.46,27.78-0.46,46.98c0,0.83,0,1.74,0.01,2.71c-1.6,8.83-6.81,20.81-12.46,20.81
	c-5.66,0-8.34-5.01-8.34-27.91c0-13.36,0.4-19.17,0.6-28.83c0.11-5.56,0.34-9.84,0.32-10.81c-0.04-2.97-5.18-4.47-7.58-5.03
	c-2.4-0.56-4.49-0.77-6.12-0.68c-2.31,0.13-3.94,1.65-3.94,3.73c0,1.12,0.01,3.24,0.01,3.24c-2.97-4.67-7.76-7.93-10.94-8.87
	c-8.57-2.55-17.52-0.29-24.26,9.15c-5.36,7.5-8.59,16-9.87,28.2c-0.93,8.92-0.63,17.97,1.03,25.62c-2,8.64-5.71,12.17-9.77,12.17
	c-5.89,0-10.17-9.62-9.67-26.26c0.33-10.94,2.52-18.62,4.91-29.74c1.02-4.74,0.19-7.22-1.89-9.59c-1.91-2.18-5.97-3.29-11.82-1.92
	c-4.16,0.98-10.11,2.03-15.56,2.83c0,0,0.33-1.31,0.6-3.62c1.42-12.12-11.75-11.14-15.96-7.27c-2.51,2.31-4.22,5.04-4.86,9.94
	c-1.03,7.78,5.32,11.45,5.32,11.45c-2.08,9.53-7.18,21.97-12.45,30.97c-2.82,4.82-4.98,8.39-7.76,12.19
	c-0.01-1.41-0.02-2.83-0.02-4.24c-0.06-20.03,0.2-35.79,0.32-41.47c0.11-5.56,0.34-9.72,0.33-10.69c-0.03-2.18-1.3-3-3.94-4.04
	c-2.34-0.92-5.1-1.56-7.96-1.78c-3.62-0.28-5.79,1.64-5.74,3.9c0.01,0.43,0.01,3.06,0.01,3.06c-2.97-4.67-7.76-7.93-10.94-8.87
	c-8.57-2.54-17.52-0.29-24.26,9.15c-5.36,7.5-8.87,18.03-9.87,28.11c-0.93,9.4-0.76,17.38,0.51,24.11
	c-1.36,6.74-5.28,13.78-9.71,13.78c-5.66,0-8.89-5.01-8.89-27.91c0-13.36,0.4-19.17,0.6-28.83c0.11-5.56,0.34-9.84,0.32-10.81
	c-0.04-2.97-5.18-4.47-7.58-5.03c-2.5-0.58-4.67-0.79-6.32-0.67c-2.19,0.16-3.73,2.12-3.73,3.59v3.37
	c-2.97-4.67-7.76-7.93-10.94-8.87c-8.57-2.54-17.47-0.25-24.26,9.15c-4.43,6.13-8.02,12.93-9.87,27.98
	c-0.53,4.35-0.77,8.42-0.74,12.23c-1.77,10.81-9.57,23.26-15.96,23.26c-3.74,0-7.29-7.25-7.29-22.69c0-20.57,1.27-49.86,1.49-52.69
	c0,0,8.07-0.14,9.63-0.16c4.02-0.04,7.67,0.05,13.03-0.22c2.69-0.14,5.28-9.78,2.5-10.98c-1.26-0.54-10.14-1.01-13.67-1.09
	c-2.96-0.07-11.21-0.68-11.21-0.68s0.74-19.44,0.91-21.5c0.15-1.71-2.07-2.59-3.34-3.13c-3.09-1.31-5.85-1.93-9.13-2.61
	c-4.52-0.93-6.58-0.02-6.98,3.8c-0.6,5.8-0.92,22.77-0.92,22.77c-3.32,0-14.66-0.65-17.98-0.65c-3.09,0-6.42,13.27-2.15,13.43
	c4.91,0.19,13.46,0.35,19.13,0.53c0,0-0.25,29.77-0.25,38.97c0,0.98,0.01,1.92,0.01,2.83c-3.12,16.27-14.11,25.06-14.11,25.06
	c2.36-10.76-2.46-18.84-11.15-25.69c-3.2-2.52-9.52-7.29-16.59-12.52c0,0,4.09-4.04,7.73-12.15c2.57-5.75,2.68-12.33-3.63-13.78
	c-10.43-2.4-19.04,5.26-21.6,13.44c-1.99,6.34-0.93,11.04,2.97,15.92c0.28,0.36,0.59,0.72,0.91,1.09
	c-2.36,4.54-5.59,10.65-8.33,15.39c-7.61,13.16-13.35,23.57-17.69,23.57c-3.47,0-3.42-10.57-3.42-20.46
	c0-8.53,0.63-21.35,1.13-34.63c0.17-4.39-2.03-6.89-5.71-9.16c-2.24-1.38-7.01-4.08-9.77-4.08c-4.14,0-16.07,0.56-27.35,33.19
	c-1.42,4.11-4.21,11.61-4.21,11.61l0.24-39.23c0-0.92-0.49-1.81-1.61-2.42c-1.9-1.03-6.98-3.14-11.49-3.14c-2.15,0-3.22,1-3.22,2.99
	l-0.39,61.38c0,4.66,0.12,10.1,0.58,12.48c0.46,2.38,1.2,4.32,2.13,5.47c0.92,1.15,1.99,2.03,3.74,2.39
	c1.63,0.34,10.58,1.49,11.05-1.93c0.56-4.1,0.58-8.53,5.28-25.06c7.31-25.73,16.85-38.29,21.33-42.75c0.78-0.78,1.68-0.83,1.64,0.45
	c-0.19,5.64-0.86,19.74-1.32,31.72c-1.21,32.05,4.62,37.99,12.95,37.99c6.37,0,15.36-6.33,24.99-22.37
	c6.01-9.99,11.84-19.79,16.03-26.85c2.92,2.7,6.2,5.61,9.47,8.72c7.61,7.22,10.11,14.08,8.45,20.59c-1.27,4.98-6.04,10.1-14.54,5.12
	c-2.48-1.45-3.53-2.58-6.02-4.22c-1.34-0.88-3.38-1.14-4.61-0.22c-3.18,2.4-5,5.45-6.04,9.23c-1.01,3.68,2.67,5.62,6.49,7.32
	c3.29,1.46,10.35,2.79,14.85,2.94c17.55,0.59,31.6-8.47,41.39-31.84c1.75,20.18,9.21,31.6,22.16,31.6c8.66,0,17.34-11.19,21.14-22.2
	c1.09,4.49,2.7,8.39,4.79,11.69c9.98,15.81,29.34,12.41,39.06-1.02c3.01-4.15,3.46-5.64,3.46-5.64
	c1.42,12.68,11.63,17.11,17.47,17.11c6.55,0,13.31-3.1,18.04-13.76c0.56,1.16,1.16,2.26,1.82,3.31
	c9.98,15.81,29.34,12.41,39.06-1.02c0.46-0.63,0.86-1.2,1.2-1.71l0.29,8.33c0,0-5.55,5.09-8.95,8.21
	c-14.99,13.75-26.38,24.18-27.22,36.33c-1.08,15.49,11.49,21.25,20.99,22c10.09,0.8,18.74-4.77,24.05-12.58
	c4.67-6.87,7.73-21.65,7.51-36.25c-0.09-5.85-0.24-13.28-0.35-21.25c5.27-6.12,11.2-13.85,16.67-22.9
	c5.96-9.86,12.34-23.11,15.61-33.42c0,0,5.55,0.05,11.46-0.34c1.89-0.12,2.44,0.26,2.09,1.65c-0.42,1.68-7.48,28.89-1.04,47.01
	c4.41,12.41,14.34,16.4,20.23,16.4c6.89,0,13.49-5.21,17.03-12.94c0.43,0.86,0.87,1.7,1.36,2.47c9.98,15.81,29.27,12.39,39.06-1.02
	c2.21-3.02,3.46-5.64,3.46-5.64c2.1,13.12,12.31,17.17,18.15,17.17c6.09,0,11.87-2.5,16.55-13.59c0.2,4.88,0.5,8.88,0.99,10.14
	c0.3,0.77,2.03,1.74,3.29,2.2c5.57,2.07,11.25,1.09,13.35,0.66c1.46-0.29,2.59-1.46,2.75-4.48c0.41-7.92,0.16-21.22,2.56-31.11
	c4.03-16.59,7.79-23.03,9.57-26.22c1-1.79,2.12-2.08,2.16-0.19c0.08,3.82,0.27,15.05,1.84,30.14c1.15,11.09,2.68,17.65,3.86,19.73
	c3.36,5.94,7.51,6.22,10.89,6.22c2.15,0,6.64-0.59,6.24-4.37c-0.2-1.84,0.15-13.22,4.12-29.57c2.59-10.68,6.92-20.32,8.48-23.85
	c0.58-1.3,0.84-0.28,0.83-0.08c-0.33,7.35-1.07,31.4,1.93,44.55c4.06,17.82,15.81,19.81,19.9,19.81c8.74,0,15.88-6.65,18.29-24.14
	c0.58-4.21-0.28-7.46-2.85-7.46"/>
</svg>
